<?xml version="1.0" standalone="no"?>
<!DOCTYPE svg PUBLIC "-//W3C//DTD SVG 20010904//EN"
 "http://www.w3.org/TR/2001/REC-SVG-20010904/DTD/svg10.dtd">
<svg version="1.0" xmlns="http://www.w3.org/2000/svg"
 width="493.000000pt" height="424.000000pt" viewBox="0 0 493.000000 424.000000"
 preserveAspectRatio="xMidYMid meet">
<metadata>
Created by potrace 1.16, written by Peter Selinger 2001-2019
</metadata>
<g transform="translate(0.000000,424.000000) scale(0.100000,-0.100000)"
fill="#ffffff" stroke="none">
<path d="M571 4096 c-420 -241 -555 -507 -420 -831 77 -186 287 -413 567 -614
61 -44 91 -71 88 -81 -50 -167 -72 -291 -82 -454 -6 -108 -6 -113 17 -139 35
-39 75 -43 108 -9 14 15 33 38 42 51 15 24 15 23 17 -25 6 -123 46 -339 92
-495 22 -73 46 -99 91 -99 l26 0 5 -107 c14 -279 98 -427 298 -527 50 -25 108
-51 128 -57 33 -10 41 -19 79 -99 25 -51 63 -110 93 -143 27 -30 50 -61 50
-69 0 -34 34 -109 65 -145 51 -60 164 -114 245 -117 14 -1 60 -16 104 -34 198
-84 424 -79 606 13 28 14 63 23 90 23 57 0 145 33 203 77 46 35 107 137 107
178 0 10 23 44 51 75 30 32 67 90 91 141 l41 87 71 26 c150 57 273 154 320
252 39 79 66 201 73 319 6 103 7 107 29 107 56 0 69 19 108 160 37 137 66 292
73 388 6 79 15 102 27 64 4 -11 17 -29 31 -42 34 -32 83 -30 114 7 23 26 23
31 17 139 -9 145 -30 278 -62 383 -14 45 -24 84 -22 85 2 1 47 35 102 75 344
255 539 491 592 716 31 132 1 286 -79 405 -76 112 -246 249 -422 341 -88 45
-117 48 -150 14 -41 -40 -33 -69 45 -173 81 -107 105 -151 124 -224 17 -66 7
-111 -34 -153 -70 -73 -228 -117 -483 -137 l-158 -12 -82 28 c-45 15 -88 30
-95 32 -9 3 -7 12 9 33 43 58 4 115 -88 127 -103 13 -372 7 -458 -10 -92 -18
-108 -20 -101 -7 9 14 -15 71 -34 81 -10 6 -33 10 -51 10 -36 0 -178 -32 -258
-59 -52 -17 -56 -17 -110 1 -136 46 -257 67 -296 52 -20 -8 -48 -62 -41 -80 7
-17 1 -17 -98 1 -152 27 -467 24 -523 -6 -25 -14 -45 -61 -36 -87 3 -9 13 -25
21 -34 12 -15 12 -18 1 -22 -8 -2 -51 -17 -97 -32 l-83 -28 -152 12 c-259 20
-417 65 -487 137 -41 42 -51 87 -34 153 19 73 43 117 124 224 74 99 84 129 53
167 -10 12 -34 24 -53 27 -30 4 -52 -4 -149 -60z m-132 -312 c-6 -16 -11 -61
-11 -101 -1 -58 4 -81 26 -126 66 -136 239 -223 516 -258 l89 -12 -54 -69
c-70 -90 -75 -142 -14 -173 25 -13 35 -13 96 6 37 11 75 22 83 25 8 2 -3 -10
-25 -28 -76 -59 -186 -181 -226 -249 l-41 -69 -36 28 c-303 224 -487 420 -553
590 -17 43 -23 78 -23 142 0 74 4 93 29 145 25 52 142 192 152 181 2 -2 -1
-16 -8 -32z m4227 -150 c24 -51 28 -71 28 -144 0 -64 -6 -99 -23 -142 -66
-170 -249 -365 -553 -591 l-36 -27 -26 45 c-45 76 -141 188 -206 240 -67 54
-65 66 7 41 63 -22 105 -20 131 4 33 31 28 76 -13 130 -19 25 -44 57 -55 73
-15 18 -17 27 -8 27 7 0 58 7 113 15 198 30 318 75 408 155 97 86 121 190 81
345 -10 38 123 -112 152 -171z m-2201 -140 c18 -3 65 7 120 25 l90 30 5 -48
c10 -90 45 -104 152 -62 89 36 198 59 298 63 l75 3 -3 -40 c-2 -30 2 -46 18
-62 22 -25 27 -26 145 -43 97 -15 193 -43 260 -78 l50 -26 -93 -7 c-135 -10
-172 -30 -172 -93 0 -38 33 -67 170 -152 69 -42 149 -97 179 -122 99 -84 185
-210 237 -347 25 -67 67 -236 60 -243 -2 -1 -20 7 -40 19 -27 16 -45 20 -71
15 -55 -11 -64 -39 -56 -176 3 -63 3 -149 -1 -190 -10 -98 -49 -300 -58 -300
-4 0 -27 7 -50 15 -58 20 -82 19 -115 -7 -24 -19 -27 -26 -22 -67 3 -25 12
-77 21 -116 40 -176 -2 -414 -88 -499 -33 -33 -149 -106 -168 -106 -3 0 -6 39
-6 87 -2 143 -35 319 -83 447 -24 65 -49 89 -91 89 -38 0 -78 -41 -78 -82 0
-44 -22 -141 -31 -136 -4 3 -11 19 -14 36 -20 88 -115 274 -177 344 -23 27
-38 35 -64 35 -63 0 -87 -44 -122 -220 l-8 -45 -58 115 c-31 63 -73 165 -92
226 -38 120 -57 147 -104 147 -47 0 -65 -26 -109 -159 -50 -151 -138 -334
-152 -313 -5 8 -9 28 -9 44 0 54 -37 169 -60 187 -34 27 -82 23 -112 -9 -60
-66 -129 -190 -168 -303 -12 -36 -25 -72 -28 -80 -6 -19 -30 71 -31 121 -1 54
-33 89 -81 89 -50 0 -72 -27 -104 -129 -45 -141 -80 -375 -70 -462 2 -16 1
-29 -1 -29 -17 0 -130 65 -160 91 -48 42 -72 93 -95 197 -24 106 -25 233 -4
327 29 125 29 141 0 169 -29 30 -57 32 -122 10 -25 -8 -48 -14 -50 -12 -2 3
-13 49 -24 104 -29 139 -42 328 -29 419 7 56 7 80 -2 97 -28 52 -72 61 -128
27 -18 -11 -35 -19 -36 -17 -2 2 3 35 11 73 44 213 135 383 270 504 32 29 122
92 199 141 149 93 175 122 159 168 -17 47 -52 62 -159 71 l-100 7 75 36 c81
38 170 63 265 73 110 12 144 40 131 109 l-7 35 73 -5 c106 -7 222 -32 306 -65
82 -33 114 -31 139 8 9 13 16 42 15 63 l-2 38 78 -24 c42 -14 91 -27 107 -30z
m60 -2001 c46 -100 152 -264 220 -340 41 -47 51 -53 85 -53 29 0 43 6 59 26
18 23 19 36 15 152 -6 144 0 146 42 17 16 -51 27 -112 30 -170 7 -128 12 -152
36 -175 35 -33 76 -26 120 21 21 22 51 63 67 90 28 50 29 50 35 23 10 -38 8
-252 -2 -294 -12 -47 -63 -160 -72 -160 -4 0 -15 18 -24 41 -46 115 -137 216
-236 263 -87 41 -214 48 -340 18 -85 -20 -85 -20 -160 0 -57 15 -99 18 -175
16 -87 -3 -109 -8 -165 -34 -36 -17 -86 -52 -113 -78 -45 -46 -117 -156 -131
-203 -4 -13 -11 -23 -15 -23 -5 0 -23 33 -42 73 -32 70 -33 77 -37 225 -3 93
0 158 6 164 6 6 19 -7 36 -36 43 -74 98 -126 132 -126 62 1 84 43 84 159 0 84
26 204 60 273 l20 43 -5 -127 c-4 -122 -4 -129 19 -154 17 -20 32 -27 57 -26
28 0 43 10 82 54 68 75 160 216 215 330 26 54 49 97 52 97 3 0 23 -39 45 -86z
m-129 -705 l83 -22 91 23 c68 18 107 23 162 19 126 -8 183 -53 254 -196 40
-80 55 -175 36 -224 -16 -39 -75 -80 -125 -85 -39 -4 -46 -1 -102 47 -108 93
-115 95 -315 95 -200 0 -198 0 -311 -91 -73 -60 -98 -65 -157 -35 -73 37 -97
92 -79 181 12 61 71 182 110 227 73 83 191 103 353 61z m242 -518 c17 -11 32
-24 32 -29 0 -19 -149 -44 -229 -38 -86 5 -163 25 -155 39 4 5 20 18 38 29 26
16 50 19 156 19 107 0 130 -3 158 -20z"/>
<path d="M2781 3224 c-45 -58 -23 -95 95 -159 123 -66 248 -151 308 -207 42
-41 47 -48 26 -43 -14 3 -82 9 -152 12 -126 6 -126 6 -152 -20 -33 -33 -34
-79 -3 -111 21 -21 35 -24 148 -29 68 -3 167 -16 219 -27 161 -36 165 -36 194
-7 34 34 33 70 -4 145 -69 137 -246 286 -512 430 -92 51 -137 55 -167 16z"/>
<path d="M1688 2829 c-37 -21 -154 -257 -192 -388 -40 -135 -64 -411 -42 -479
9 -27 66 -55 93 -45 10 3 47 29 83 58 109 87 172 132 228 160 79 41 103 91 67
142 -35 50 -96 36 -232 -54 -32 -21 -64 -43 -72 -47 -11 -7 -12 1 -6 50 17
140 68 287 146 425 27 48 49 98 49 113 0 55 -73 94 -122 65z"/>
<path d="M3010 2180 c-26 -26 -27 -83 0 -110 10 -10 36 -28 57 -39 60 -30 130
-98 166 -159 41 -69 81 -88 124 -55 15 10 31 32 36 47 22 65 -100 220 -234
299 -72 42 -118 48 -149 17z"/>
<path d="M2116 659 c-15 -12 -38 -43 -52 -70 -28 -57 -25 -89 13 -119 51 -40
98 -19 138 60 32 64 31 85 -4 121 -35 34 -59 36 -95 8z"/>
<path d="M2774 670 c-26 -10 -54 -48 -54 -73 0 -28 47 -114 72 -131 43 -30 99
-10 119 42 17 45 -61 174 -105 171 -6 0 -21 -4 -32 -9z"/>
</g>
</svg>
