<svg xmlns="http://www.w3.org/2000/svg" version="1.0" width="606.029" height="296.231" viewBox="0 0 454.522 222.174">
  <path d="M33.107 13.044C12.475 24.883 5.844 37.95 12.475 53.865c3.783 9.137 14.099 20.288 27.853 30.162 2.997 2.162 4.47 3.488 4.323 3.98-2.456 8.203-3.537 14.294-4.028 22.301-.295 5.305-.295 5.551.835 6.828 1.72 1.916 3.684 2.113 5.305.442.688-.737 1.622-1.866 2.064-2.505.736-1.179.736-1.13.835 1.228.294 6.042 2.26 16.653 4.52 24.316 1.08 3.586 2.259 4.863 4.47 4.863h1.276l.246 5.256c.688 13.706 4.814 20.976 14.639 25.888 2.456 1.229 5.305 2.506 6.288 2.8 1.62.492 2.014.934 3.88 4.864 1.228 2.505 3.095 5.403 4.569 7.024 1.326 1.474 2.456 2.997 2.456 3.39 0 1.67 1.67 5.354 3.193 7.123 2.505 2.947 8.056 5.6 12.035 5.747.688.05 2.948.786 5.109 1.67 9.726 4.127 20.828 3.881 29.769-.638 1.375-.688 3.094-1.13 4.42-1.13 2.8 0 7.124-1.621 9.973-3.783 2.26-1.719 5.256-6.73 5.256-8.744 0-.49 1.13-2.161 2.505-3.684 1.474-1.572 3.291-4.42 4.47-6.926l2.014-4.274 3.488-1.277c7.369-2.8 13.41-7.565 15.72-12.38 1.915-3.88 3.242-9.873 3.586-15.67.294-5.06.344-5.256 1.424-5.256 2.751 0 3.39-.933 5.306-7.86 1.817-6.73 3.242-14.343 3.586-19.06.294-3.88.736-5.01 1.326-3.143.196.54.835 1.424 1.523 2.063 1.67 1.572 4.077 1.474 5.6-.344 1.13-1.277 1.13-1.523.835-6.828-.442-7.123-1.474-13.656-3.046-18.814-.688-2.21-1.179-4.126-1.08-4.176.098-.049 2.308-1.719 5.01-3.684 16.898-12.526 26.477-24.12 29.081-35.172 1.523-6.484.05-14.05-3.88-19.895-3.734-5.502-12.085-12.232-20.73-16.751-4.324-2.21-5.748-2.358-7.37-.688-2.013 1.965-1.62 3.39 2.211 8.499 3.98 5.256 5.158 7.417 6.092 11.003.835 3.242.343 5.453-1.67 7.516-3.44 3.586-11.2 5.747-23.727 6.73l-7.762.59-4.028-1.376c-2.21-.737-4.323-1.474-4.666-1.572-.442-.147-.344-.59.442-1.621 2.112-2.85.196-5.65-4.323-6.239-5.06-.638-18.274-.344-22.499.492-4.519.884-5.305.982-4.961.343.442-.687-.737-3.487-1.67-3.979-.491-.294-1.621-.49-2.505-.49-1.769 0-8.744 1.571-12.674 2.897-2.555.836-2.751.836-5.404-.049-6.68-2.26-12.624-3.29-14.54-2.554-.983.393-2.358 3.046-2.014 3.93.344.835.049.835-4.814-.05-7.467-1.326-22.941-1.178-25.692.295-1.228.688-2.21 2.997-1.768 4.274.147.442.638 1.228 1.031 1.67.59.737.59.885.05 1.081-.394.098-2.506.835-4.766 1.572l-4.077 1.375-7.467-.59c-12.722-.982-20.484-3.192-23.923-6.729-2.014-2.063-2.505-4.274-1.67-7.516.934-3.586 2.113-5.747 6.092-11.003 3.635-4.864 4.126-6.337 2.603-8.204-.491-.59-1.67-1.179-2.603-1.326-1.474-.197-2.555.196-7.32 2.947zm-6.484 15.327c-.295.786-.54 2.996-.54 4.961-.05 2.85.196 3.979 1.277 6.19 3.242 6.68 11.74 10.954 25.347 12.673l4.372.59-2.652 3.39c-3.439 4.42-3.685 6.975-.688 8.498 1.228.638 1.72.638 4.716-.295 1.817-.54 3.684-1.08 4.077-1.228.393-.098-.147.491-1.228 1.375-3.733 2.899-9.137 8.892-11.102 12.232l-2.014 3.39-1.768-1.376C31.535 67.767 22.497 58.139 19.254 49.788c-.835-2.112-1.13-3.831-1.13-6.975 0-3.635.197-4.569 1.425-7.123 1.228-2.555 6.976-9.432 7.467-8.891.098.098-.05.786-.393 1.572zm207.644 7.368c1.179 2.505 1.375 3.488 1.375 7.074 0 3.144-.294 4.863-1.13 6.975-3.242 8.351-12.231 17.93-27.165 29.032l-1.768 1.326-1.277-2.21c-2.21-3.733-6.927-9.235-10.12-11.79-3.291-2.652-3.193-3.242.344-2.014 3.095 1.081 5.158.983 6.435-.196 1.621-1.523 1.376-3.734-.638-6.386-.934-1.228-2.162-2.8-2.702-3.586-.737-.884-.835-1.327-.393-1.327.344 0 2.849-.343 5.55-.736 9.727-1.474 15.622-3.685 20.043-7.615 4.765-4.224 5.944-9.333 3.98-16.947-.492-1.867 6.041 5.502 7.466 8.4zm-108.12 6.877c.884.148 3.193-.344 5.894-1.228l4.421-1.473.246 2.357c.491 4.422 2.21 5.11 7.467 3.046 4.372-1.768 9.726-2.898 14.639-3.095l3.684-.147-.148 1.965c-.098 1.474.099 2.26.885 3.045 1.08 1.229 1.326 1.278 7.122 2.113 4.765.737 9.481 2.112 12.773 3.831l2.456 1.278-4.569.343c-6.631.492-8.449 1.474-8.449 4.569 0 1.867 1.621 3.291 8.351 7.467 3.39 2.063 7.32 4.765 8.793 5.993 4.863 4.126 9.088 10.316 11.642 17.045 1.228 3.292 3.292 11.594 2.948 11.937-.099.05-.983-.343-1.965-.933-1.327-.786-2.21-.982-3.488-.737-2.702.54-3.144 1.916-2.75 8.646.146 3.095.146 7.32-.05 9.333-.491 4.814-2.407 14.737-2.85 14.737-.196 0-1.326-.344-2.455-.737-2.85-.982-4.028-.933-5.65.344-1.178.934-1.326 1.277-1.08 3.292.147 1.228.59 3.782 1.031 5.698 1.965 8.646-.098 20.337-4.323 24.512-1.62 1.621-7.319 5.207-8.252 5.207-.148 0-.295-1.915-.295-4.273-.098-7.025-1.72-15.67-4.077-21.958-1.18-3.193-2.407-4.372-4.47-4.372-1.867 0-3.832 2.014-3.832 4.028 0 2.161-1.08 6.926-1.523 6.68-.196-.147-.54-.933-.688-1.768-.982-4.323-5.649-13.46-8.694-16.898-1.13-1.327-1.867-1.72-3.144-1.72-3.095 0-4.274 2.162-5.993 10.807l-.393 2.211-2.85-5.65c-1.522-3.094-3.585-8.105-4.519-11.101-1.866-5.895-2.8-7.221-5.109-7.221-2.308 0-3.193 1.277-5.354 7.81-2.456 7.418-6.779 16.408-7.467 15.376-.245-.393-.442-1.375-.442-2.161 0-2.653-1.817-8.302-2.947-9.186-1.67-1.327-4.028-1.13-5.502.442-2.947 3.242-6.337 9.333-8.253 14.884a145.252 145.252 0 01-1.375 3.93c-.295.933-1.474-3.488-1.523-5.944-.05-2.653-1.621-4.372-3.979-4.372-2.456 0-3.537 1.326-5.109 6.337-2.21 6.926-3.93 18.421-3.438 22.695.098.786.049 1.424-.05 1.424-.835 0-6.386-3.193-7.86-4.47-2.357-2.063-3.536-4.568-4.666-9.677-1.179-5.207-1.228-11.446-.196-16.063 1.424-6.14 1.424-6.927 0-8.302-1.425-1.474-2.8-1.572-5.993-.491-1.229.393-2.358.687-2.457.589-.098-.147-.638-2.407-1.179-5.109-1.424-6.828-2.063-16.112-1.424-20.582.344-2.751.344-3.93-.098-4.765-1.376-2.555-3.537-2.997-6.288-1.327-.884.54-1.72.934-1.769.835-.098-.098.148-1.719.54-3.586 2.162-10.463 6.632-18.814 13.264-24.758 1.572-1.424 5.993-4.519 9.776-6.926 7.319-4.569 8.596-5.993 7.81-8.253-.835-2.309-2.554-3.045-7.81-3.488l-4.913-.343 3.684-1.769c3.98-1.867 8.351-3.095 13.018-3.586 5.404-.59 7.074-1.965 6.435-5.354l-.344-1.72 3.586.246c5.207.344 10.906 1.572 15.032 3.193 4.028 1.621 5.6 1.523 6.828-.393.442-.639.786-2.063.737-3.095l-.098-1.866 3.831 1.179c2.064.687 4.47 1.326 5.257 1.473zm2.947 98.296c2.26 4.912 7.467 12.968 10.807 16.702 2.014 2.309 2.505 2.603 4.176 2.603 1.424 0 2.112-.294 2.898-1.277.884-1.13.933-1.768.737-7.467-.295-7.073 0-7.172 2.063-.835.786 2.506 1.326 5.502 1.474 8.351.343 6.288.589 7.467 1.768 8.597 1.72 1.62 3.733 1.277 5.895-1.032 1.031-1.08 2.505-3.095 3.291-4.42 1.375-2.457 1.425-2.457 1.72-1.13.49 1.866.392 12.378-.099 14.441-.59 2.31-3.095 7.86-3.537 7.86-.196 0-.737-.884-1.179-2.014-2.26-5.649-6.73-10.61-11.593-12.92-4.274-2.013-10.512-2.357-16.702-.883-4.175.982-4.175.982-7.86 0-2.8-.737-4.863-.885-8.596-.786-4.274.147-5.354.393-8.105 1.67-1.769.835-4.225 2.554-5.551 3.831-2.21 2.26-5.748 7.664-6.435 9.972-.197.639-.54 1.13-.737 1.13-.246 0-1.13-1.62-2.063-3.586-1.572-3.438-1.621-3.782-1.818-11.053-.147-4.568 0-7.761.295-8.056.295-.294.933.344 1.768 1.769 2.113 3.635 4.814 6.19 6.484 6.19 3.046-.05 4.127-2.113 4.127-7.811 0-4.127 1.277-10.022 2.947-13.411l.983-2.112-.246 6.238c-.196 5.993-.196 6.337.933 7.565.836.983 1.572 1.327 2.8 1.278 1.376 0 2.113-.492 4.029-2.653 3.34-3.684 7.86-10.61 10.561-16.21 1.277-2.653 2.407-4.766 2.554-4.766.148 0 1.13 1.916 2.211 4.225zm-6.337 34.632l4.077 1.08 4.47-1.13c3.34-.884 5.257-1.13 7.958-.933 6.19.393 8.99 2.604 12.478 9.628 1.965 3.93 2.702 8.597 1.768 11.004-.786 1.916-3.684 3.93-6.14 4.175-1.916.197-2.26.05-5.01-2.308-5.306-4.569-5.65-4.667-15.475-4.667-9.824 0-9.726 0-15.277 4.47-3.586 2.948-4.814 3.193-7.712 1.72-3.586-1.818-4.765-4.52-3.881-8.892.59-2.996 3.488-8.94 5.404-11.15 3.586-4.078 9.382-5.06 17.34-2.997zm11.888 25.446c.835.54 1.572 1.178 1.572 1.424 0 .933-7.32 2.162-11.25 1.867-4.224-.246-8.006-1.228-7.613-1.916.196-.246.982-.884 1.866-1.425 1.277-.786 2.456-.933 7.663-.933 5.257 0 6.386.147 7.762.983z"/>
  <path d="M141.67 55.88c-2.211 2.849-1.13 4.666 4.666 7.81 6.042 3.242 12.183 7.418 15.13 10.169 2.063 2.014 2.309 2.358 1.277 2.112-.687-.147-4.028-.442-7.466-.59-6.19-.294-6.19-.294-7.467.983-1.621 1.621-1.67 3.88-.147 5.453 1.031 1.031 1.719 1.179 7.27 1.424 3.34.148 8.203.786 10.758 1.327 7.909 1.768 8.105 1.768 9.53.343 1.67-1.67 1.62-3.438-.197-7.122-3.39-6.73-12.084-14.05-25.15-21.123-4.52-2.506-6.73-2.702-8.204-.786zM87.978 75.283c-1.818 1.032-7.565 12.625-9.432 19.06-1.965 6.632-3.144 20.19-2.063 23.53.442 1.326 3.242 2.702 4.568 2.21.492-.147 2.31-1.424 4.078-2.849 5.354-4.273 8.449-6.484 11.2-7.86 3.88-2.013 5.06-4.47 3.291-6.975-1.72-2.456-4.716-1.768-11.397 2.653-1.571 1.031-3.143 2.112-3.536 2.309-.54.344-.59-.05-.295-2.456.835-6.878 3.34-14.099 7.172-20.878 1.326-2.358 2.407-4.814 2.407-5.55 0-2.703-3.586-4.618-5.993-3.194zM152.919 107.164c-1.277 1.277-1.327 4.077 0 5.404.491.491 1.768 1.375 2.8 1.916 2.947 1.473 6.386 4.814 8.154 7.81 2.014 3.39 3.98 4.323 6.092 2.702.736-.491 1.522-1.572 1.768-2.309 1.08-3.193-4.912-10.807-11.495-14.688-3.537-2.063-5.796-2.358-7.32-.835zM109.003 181.88c-.737.59-1.867 2.113-2.555 3.44-1.375 2.8-1.228 4.371.639 5.845 2.505 1.965 4.814.933 6.779-2.947 1.572-3.144 1.523-4.176-.197-5.944-1.719-1.67-2.898-1.769-4.666-.393zM141.326 181.34c-1.278.491-2.653 2.358-2.653 3.586 0 1.376 2.309 5.6 3.537 6.435 2.112 1.474 4.863.492 5.846-2.063.835-2.21-2.997-8.547-5.158-8.4-.295 0-1.032.197-1.572.442z"/>
    <g aria-label="yakpdf">
      <path d="M272.434 73.039l-6.656 18.148-6.708-18.148h-9.932l11.804 28.028-6.656 14.768h9.568l18.2-42.796zM283.51 87.495c0 9.152 5.668 14.976 12.74 14.976 4.316 0 7.384-1.976 8.996-4.524v4.108h8.892V73.039h-8.892v4.108c-1.56-2.548-4.628-4.524-8.944-4.524-7.124 0-12.792 5.72-12.792 14.872zm21.736.052c0 4.628-2.964 7.176-6.344 7.176-3.328 0-6.344-2.6-6.344-7.228s3.016-7.124 6.344-7.124c3.38 0 6.344 2.548 6.344 7.176zM320.586 63.575v38.48h8.891V89.887l8.84 12.168h11.024l-12.168-14.456 12.064-14.56h-10.972l-8.788 11.804V63.575zM361.613 77.147v-4.108h-8.892v42.848h8.892V97.999c1.612 2.444 4.68 4.472 8.944 4.472 7.124 0 12.792-5.824 12.792-14.976 0-9.152-5.668-14.872-12.792-14.872-4.264 0-7.332 1.976-8.944 4.524zm12.688 10.348c0 4.628-3.016 7.228-6.396 7.228-3.328 0-6.344-2.548-6.344-7.176s3.016-7.176 6.344-7.176c3.38 0 6.396 2.496 6.396 7.124zM386.261 87.495c0 9.152 5.668 14.976 12.792 14.976 4.264 0 7.332-1.924 8.944-4.576v4.16h8.892v-38.48h-8.892v13.468c-1.768-2.652-5.096-4.42-8.944-4.42-7.124 0-12.792 5.72-12.792 14.872zm21.736.052c0 4.628-2.964 7.176-6.344 7.176-3.328 0-6.344-2.6-6.344-7.228s3.016-7.124 6.344-7.124c3.38 0 6.344 2.548 6.344 7.176zM424.221 72.207v.832h-3.224v7.384h3.224v21.632h8.892V80.423h4.784v-7.384h-4.784v-.26c0-3.068 1.196-4.108 4.628-3.9v-7.54c-8.84-.468-13.52 3.276-13.52 10.868z"/>
    </g>
    <g aria-label="A practical PDF generator">
      <path d="M263.474 143.04h2.688l-7.028-19.404h-2.94l-7.056 19.404h2.688l1.568-4.34h8.512zm-2.296-6.412h-7.056l3.528-9.856zM279.266 130.524v-2.828h-2.548v22.624h2.548v-10.108c.952 1.568 2.94 3.08 5.74 3.08 4.116 0 7.28-3.22 7.28-7.98 0-4.788-3.164-7.868-7.28-7.868-2.8 0-4.816 1.456-5.74 3.08zm10.416 4.788c0 3.612-2.38 5.74-5.208 5.74-2.772 0-5.208-2.1-5.208-5.712 0-3.556 2.436-5.684 5.208-5.684 2.828 0 5.208 2.044 5.208 5.656zM298.194 134.696c0-3.556 1.848-4.648 4.284-4.648h.672v-2.632c-2.436 0-4.088 1.064-4.956 2.772v-2.492h-2.548v15.344h2.548zM305.138 135.312c0 4.76 3.164 7.98 7.252 7.98 2.828 0 4.816-1.456 5.74-3.108v2.856h2.576v-15.344h-2.576v2.8c-.896-1.596-2.856-3.052-5.712-3.052-4.116 0-7.28 3.08-7.28 7.868zm12.992.028c0 3.612-2.408 5.712-5.208 5.712-2.8 0-5.18-2.128-5.18-5.74s2.38-5.656 5.18-5.656 5.208 2.128 5.208 5.684zM324.066 135.34c0 4.872 3.108 7.952 7.476 7.952 3.808 0 6.3-2.128 7.084-5.18h-2.744c-.56 1.932-2.072 3.024-4.34 3.024-2.8 0-4.872-1.988-4.872-5.796 0-3.752 2.072-5.74 4.872-5.74 2.268 0 3.808 1.176 4.34 3.024h2.744c-.784-3.22-3.276-5.18-7.084-5.18-4.368 0-7.476 3.08-7.476 7.896zM342.574 123.832v3.864h-1.988v2.1h1.988v9.044c0 3.08 1.54 4.2 4.256 4.2h2.296v-2.156h-1.876c-1.568 0-2.128-.532-2.128-2.044v-9.044h4.004v-2.1h-4.004v-3.864zM352.206 127.696v15.344h2.548v-15.344zm1.316-2.492c.924 0 1.68-.756 1.68-1.736s-.756-1.736-1.68-1.736a1.71 1.71 0 00-1.736 1.736c0 .98.756 1.736 1.736 1.736zM358.142 135.34c0 4.872 3.108 7.952 7.476 7.952 3.808 0 6.3-2.128 7.084-5.18h-2.744c-.56 1.932-2.072 3.024-4.34 3.024-2.8 0-4.872-1.988-4.872-5.796 0-3.752 2.072-5.74 4.872-5.74 2.268 0 3.808 1.176 4.34 3.024h2.744c-.784-3.22-3.276-5.18-7.084-5.18-4.368 0-7.476 3.08-7.476 7.896zM375.138 135.312c0 4.76 3.164 7.98 7.252 7.98 2.828 0 4.816-1.456 5.74-3.108v2.856h2.576v-15.344h-2.576v2.8c-.896-1.596-2.856-3.052-5.712-3.052-4.116 0-7.28 3.08-7.28 7.868zm12.992.028c0 3.612-2.408 5.712-5.208 5.712-2.8 0-5.18-2.128-5.18-5.74s2.38-5.656 5.18-5.656 5.208 2.128 5.208 5.684zM395.018 122.32v20.72h2.548v-20.72zM256.67 161.066h-3.752v-7.168h3.752c2.912 0 4.144 1.344 4.144 3.612 0 2.184-1.232 3.556-4.144 3.556zm6.748-3.556c0-3.192-2.156-5.712-6.748-5.712h-6.3v19.516h2.548v-8.148h3.752c4.844 0 6.748-2.688 6.748-5.656zM272.658 151.798h-6.076v19.516h6.076c6.412 0 10.36-3.668 10.36-9.716 0-6.048-3.948-9.8-10.36-9.8zm0 17.416h-3.528V153.87h3.528c5.096 0 7.756 2.968 7.756 7.728s-2.66 7.616-7.756 7.616zM286.378 151.798v19.516h2.548v-8.792h6.888v-2.072h-6.888v-6.58h8.484v-2.072zM314.294 155.718c-4.116 0-7.28 3.08-7.28 7.868 0 4.76 3.164 7.98 7.28 7.98 2.8 0 4.788-1.484 5.712-3.136v3.22c0 3.276-2.044 5.012-4.76 5.012-2.52 0-4.34-1.26-4.9-3.108h-2.52c.504 3.276 3.388 5.32 7.42 5.32 4.508 0 7.336-2.996 7.336-7.224v-15.68h-2.576v2.8c-.896-1.652-2.912-3.052-5.712-3.052zm5.712 7.896c0 3.612-2.408 5.712-5.208 5.712-2.8 0-5.18-2.128-5.18-5.74s2.38-5.656 5.18-5.656 5.208 2.128 5.208 5.684zM333.418 157.874c2.632 0 4.872 1.652 4.844 4.648h-9.688c.28-2.996 2.352-4.648 4.844-4.648zm7.168 8.708h-2.744c-.56 1.652-2.016 2.828-4.312 2.828-2.604 0-4.788-1.708-4.984-4.816h12.264a13.8 13.8 0 00.084-1.54c0-4.2-2.912-7.336-7.364-7.336-4.48 0-7.588 3.052-7.588 7.896 0 4.872 3.22 7.952 7.588 7.952 3.808 0 6.272-2.184 7.056-4.984zM355.482 162.634v8.68h2.52v-9.044c0-4.396-2.716-6.58-6.272-6.58-2.072 0-3.92.868-4.928 2.464v-2.184h-2.548v15.344h2.548v-8.484c0-3.304 1.792-4.928 4.396-4.928 2.576 0 4.284 1.596 4.284 4.732zM368.698 157.874c2.632 0 4.872 1.652 4.844 4.648h-9.688c.28-2.996 2.352-4.648 4.844-4.648zm7.168 8.708h-2.744c-.56 1.652-2.016 2.828-4.312 2.828-2.604 0-4.788-1.708-4.984-4.816h12.264a13.8 13.8 0 00.084-1.54c0-4.2-2.912-7.336-7.364-7.336-4.48 0-7.588 3.052-7.588 7.896 0 4.872 3.22 7.952 7.588 7.952 3.808 0 6.272-2.184 7.056-4.984zM382.082 162.97c0-3.556 1.848-4.648 4.284-4.648h.672v-2.632c-2.436 0-4.088 1.064-4.956 2.772v-2.492h-2.548v15.344h2.548zM389.026 163.586c0 4.76 3.164 7.98 7.252 7.98 2.828 0 4.816-1.456 5.74-3.108v2.856h2.576V155.97h-2.576v2.8c-.896-1.596-2.856-3.052-5.712-3.052-4.116 0-7.28 3.08-7.28 7.868zm12.992.028c0 3.612-2.408 5.712-5.208 5.712-2.8 0-5.18-2.128-5.18-5.74s2.38-5.656 5.18-5.656 5.208 2.128 5.208 5.684zM409.466 152.106v3.864h-1.988v2.1h1.988v9.044c0 3.08 1.54 4.2 4.256 4.2h2.296v-2.156h-1.876c-1.568 0-2.128-.532-2.128-2.044v-9.044h4.004v-2.1h-4.004v-3.864zM425.79 171.566c4.368 0 7.868-3.08 7.868-7.952 0-4.844-3.388-7.896-7.756-7.896-4.34 0-7.756 3.052-7.756 7.896 0 4.872 3.304 7.952 7.644 7.952zm0-2.24c-2.66 0-5.04-1.82-5.04-5.712 0-3.864 2.436-5.684 5.124-5.684 2.632 0 5.18 1.82 5.18 5.684 0 3.892-2.604 5.712-5.264 5.712zM439.566 162.97c0-3.556 1.848-4.648 4.284-4.648h.672v-2.632c-2.436 0-4.088 1.064-4.956 2.772v-2.492h-2.548v15.344h2.548z"/>
    </g>
</svg>
